<?xml version="1.0" encoding="utf-8"?>
<!-- Generator: $$$/GeneralStr/196=Adobe Illustrator 27.6.0, SVG Export Plug-In . SVG Version: 6.00 Build 0)  -->
<svg version="1.1" id="Livello_1" xmlns="http://www.w3.org/2000/svg" xmlns:xlink="http://www.w3.org/1999/xlink" x="0px" y="0px"
	 viewBox="0 0 7894.3 6272.7" style="enable-background:new 0 0 7894.3 6272.7;" xml:space="preserve">
<style type="text/css">
	.st0{fill:none;stroke:#16A34A;stroke-width:616.0741;stroke-linecap:round;stroke-linejoin:round;stroke-miterlimit:200;}
	.st1{fill:#16A34A;stroke:#16A34A;stroke-width:295.7156;stroke-miterlimit:10;}
</style>
<rect x="473.5" y="980.1" class="st0" width="6963.2" height="4312.5"/>
<path class="st0" d="M5431.2,4060.5H6458 M3788.3,2212.3l1026.8,924.1l-1026.8,924.1"/>
<g>
	<path class="st1" d="M1280.7,4186.1V2250.5c0-92.9,75.3-168.2,168.2-168.2h5.1c88.7,0,171.2,45.4,218.7,120.4l641.6,1012.9
		c166.2,262.6,295.8,498.6,402.2,727.9l6.6-3.3c-26.6-299.2-33.2-571.7-33.2-920.6v-801c0-75.3,61-136.3,136.3-136.3h0
		c75.3,0,136.3,61,136.3,136.3v1944.9c0,87.8-71.2,158.9-158.9,158.9h0c-83.1,0-160.3-42.8-204.4-113.2l-640.4-1023.4
		c-155.1-247.5-303.7-501.6-416.4-742.7c-1.4-2.9-4.7-4.3-7.7-3.3l0,0c-2.7,0.9-4.5,3.5-4.3,6.4c16.4,280.8,23,549,23,919.1v820.9
		c0,75.3-61,136.3-136.3,136.3h0C1341.7,4322.4,1280.7,4261.4,1280.7,4186.1z"/>
</g>
</svg>
